<svg xmlns="http://www.w3.org/2000/svg" xmlns:xlink="http://www.w3.org/1999/xlink" version="1.1" x="0px" y="0px" viewBox="0 0 100 125" enable-background="new 0 0 100 100" xml:space="preserve"><path d="M50.576,94.354c-1.07,0-2.073-0.415-2.826-1.167L6.745,52.181c-0.753-0.752-1.167-1.756-1.167-2.826  c0-1.07,0.415-2.074,1.167-2.826L47.75,5.523c0.753-0.753,1.756-1.167,2.826-1.167c1.071,0,2.074,0.415,2.826,1.167l41.007,41.006  c1.558,1.558,1.558,4.094,0,5.652L53.402,93.187C52.65,93.939,51.646,94.354,50.576,94.354z M50.576,6.312  c-0.547,0-1.059,0.211-1.443,0.594L8.128,47.912c-0.383,0.383-0.594,0.895-0.594,1.443c0,0.547,0.211,1.059,0.594,1.443  l41.006,41.006c0.766,0.765,2.119,0.765,2.885,0l41.007-41.006c0.795-0.795,0.795-2.09,0-2.885L52.019,6.906  C51.636,6.523,51.124,6.312,50.576,6.312z M47.213,79.789l-0.197,6.753l1.639,1.639c0.211,0.211,0.453,0.368,0.707,0.495  l0.092-10.381h-1.006C48.225,78.929,47.777,79.452,47.213,79.789z M49.882,29.842l0.177-20.056  c-0.283,0.054-0.555,0.165-0.812,0.309l-0.616,21.111C49.005,30.699,49.427,30.225,49.882,29.842z M52.855,78.295h-1.203  l0.12,10.391c0.261-0.128,0.51-0.288,0.726-0.504l1.616-1.616l-0.22-6.903C53.418,79.324,53.047,78.847,52.855,78.295z   M51.671,9.972c-0.259-0.114-0.532-0.179-0.809-0.208l0.222,19.223c0.393-0.276,0.786-0.562,1.167-0.848L51.671,9.972z   M50.908,41.624c-0.141-0.076-0.251,0.121-0.251,0.121s-0.11-0.197-0.251-0.121c0,0-0.423,0.127-0.846,0.178  c1.056,0.358,2.192,0,2.192,0C51.33,41.751,50.908,41.624,50.908,41.624z M76.75,62.479l-7.925-19.578  c0.425-0.466,0.552-1.075,0.288-1.629c-0.231-0.485-0.698-0.756-1.256-0.763l-4.51-11.143c0.293-0.403,0.33-1.11,0.048-1.807  c-0.37-0.915-1.148-1.464-1.737-1.225c-0.589,0.238-0.766,1.173-0.395,2.088c0.282,0.697,0.8,1.179,1.291,1.265l4.454,11.003  c-0.027,0.011-0.053,0.018-0.08,0.03c-0.279,0.131-0.556,0.264-0.835,0.396l-0.261-0.789c-0.719,0.904-3.177,2.323-4.559,3.08  c-0.852,0.407-1.703,0.814-2.555,1.221c-0.72,0.344-1.322,0.038-1.322,0.038c-2.18-0.769-3.09-0.667-3.09-0.667h-1.31  c0.065-0.729,0.253-1.693,0.401-2.383c0.433-0.575,0.699-1.283,0.699-2.058c0-0.125-0.024-0.243-0.037-0.364  c2.567-0.035,5.244-0.131,7.817-0.323c-2.838-0.458-4.76-1.556-4.76-1.556c-1.465-1.282-3.204-2.014-3.204-2.014  c0.073-0.704-0.732-3.936-0.732-3.936c-0.091-1.007,1.648-2.197,1.648-2.197c1.098-1.373,0.732-2.746,0.732-2.746  c-0.366,1.007-4.577,3.845-4.577,3.845c-1.831,1.098-3.295,4.668-3.295,4.668c-1.007,0.824-3.845,2.563-3.845,2.563  c-1.373,1.007-4.119,1.373-4.119,1.373s3.119,0.2,7.534,0.293c-0.015,0.131-0.04,0.259-0.04,0.394c0,0.775,0.266,1.482,0.698,2.057  c0.149,0.69,0.336,1.655,0.401,2.384h-1.31c0,0-0.91-0.102-3.09,0.667c0,0-0.601,0.305-1.322-0.038  c-0.852-0.406-1.703-0.813-2.555-1.221c-1.382-0.756-3.84-2.176-4.559-3.08l-0.262,0.789c-0.279-0.131-0.556-0.265-0.835-0.396  c-0.081-0.038-0.162-0.064-0.242-0.092l0.339-1.095l1.387,0.424l0.149-0.487l-0.868-0.265l4.634-15.743l0.304-4.186L38,22.915  l-4.959,15.644l-0.872-0.267l-0.149,0.487l1.391,0.425l-0.428,1.384c-0.341,0.115-0.62,0.346-0.781,0.684  c-0.228,0.478-0.167,0.998,0.127,1.432l-0.212,0.687l-0.232-0.071l-0.268,0.877l1.559,0.477l0.268-0.877l-0.255-0.078l0.084-0.272  c0.338,0.162,0.677,0.324,1.015,0.486l-2.15,5.319c7.808,4.274,13.797-0.666,13.797-0.666s0.534-0.057,0.534,1.228  c0,0-2.562,20.528-6.657,27.483h4.284l0,0.254c0.097,0.937,0.839,1.642,1.71,1.641c0.907-0.002,1.738-0.729,1.798-1.65l0-0.244  h6.106l0,0.244c0.061,0.921,0.892,1.649,1.798,1.65c0.871,0.002,1.613-0.703,1.71-1.641l0-0.254h4.284  c-4.095-6.954-6.657-27.483-6.657-27.483c0-1.285,0.534-1.228,0.534-1.228s5.989,4.939,13.797,0.666l-2.15-5.319  c0.361-0.173,0.722-0.346,1.083-0.519L75.958,62.8c0.089,0.219,0.338,0.324,0.557,0.236C76.733,62.947,76.839,62.698,76.75,62.479z   M62.273,27.325c-0.121,0.049-0.259-0.009-0.308-0.131c-0.049-0.121,0.009-0.259,0.131-0.308c0.121-0.049,0.259,0.009,0.308,0.131  C62.452,27.138,62.394,27.276,62.273,27.325z M52.813,43.044c-0.001,0.004-0.001,0.008-0.002,0.012  c-0.052,0.323-0.094,0.641-0.119,0.927c-0.02,0.225-0.031,0.435-0.024,0.606c0.002,0.031,0.141,3.136-0.068,4.066  c-0.407,1.764-1.529,1.9-1.863,1.9c-0.038,0-0.061-0.002-0.096-0.002c-0.004,0-0.027,0.002-0.065,0.002  c-0.334,0-1.457-0.137-1.864-1.899c-0.209-0.93-0.07-4.036-0.068-4.067c0.007-0.17-0.004-0.38-0.024-0.605  c-0.025-0.287-0.068-0.605-0.119-0.929c0-0.003-0.001-0.006-0.001-0.01c-0.053-0.329-0.115-0.664-0.177-0.974  c-0.061-0.305-0.122-0.587-0.173-0.816c0.374,0.325,0.724,0.406,0.98,0.406c0.368,0,0.614-0.163,0.647-0.189  c0.279-0.279,0.763-0.293,0.858-0.293h0.044c0.094,0,0.578,0.014,0.879,0.312c0.011,0.007,0.257,0.171,0.626,0.171  c0.255,0,0.606-0.08,0.979-0.405c-0.051,0.229-0.112,0.512-0.174,0.817C52.927,42.382,52.866,42.716,52.813,43.044z"/></svg>